<?xml version="1.0" standalone="no"?><!DOCTYPE svg PUBLIC "-//W3C//DTD SVG 1.1//EN" "http://www.w3.org/Graphics/SVG/1.1/DTD/svg11.dtd"><svg t="1562814103215" class="icon" viewBox="0 0 1024 1024" version="1.1" xmlns="http://www.w3.org/2000/svg" p-id="16770" xmlns:xlink="http://www.w3.org/1999/xlink" width="200" height="200"><defs><style type="text/css"></style></defs><path d="M896 177.706667l-250.965333 197.184a42.666667 42.666667 0 0 1-50.837334 1.386666l-187.157333-130.986666L112 481.301333a42.666667 42.666667 0 1 1-53.333333-66.645333l320-256a42.666667 42.666667 0 0 1 51.136-1.621333l187.392 131.178666L821.141333 128H725.333333a42.666667 42.666667 0 1 1 0-85.333333h213.333334a42.666667 42.666667 0 0 1 42.666666 42.666666v213.333334a42.666667 42.666667 0 1 1-85.333333 0V177.706667zM149.333333 554.666667a42.666667 42.666667 0 1 1 85.333334 0v384a42.666667 42.666667 0 1 1-85.333334 0V554.666667z m213.333334-170.666667a42.666667 42.666667 0 1 1 85.333333 0v554.666667a42.666667 42.666667 0 1 1-85.333333 0V384z m213.333333 128a42.666667 42.666667 0 1 1 85.333333 0v426.666667a42.666667 42.666667 0 1 1-85.333333 0V512z m213.333333-85.333333a42.666667 42.666667 0 1 1 85.333334 0v512a42.666667 42.666667 0 1 1-85.333334 0V426.666667z" fill="" p-id="16771"></path></svg>