<?xml version="1.0" standalone="no"?><!DOCTYPE svg PUBLIC "-//W3C//DTD SVG 1.1//EN" "http://www.w3.org/Graphics/SVG/1.1/DTD/svg11.dtd"><svg t="1562812674743" class="icon" viewBox="0 0 1323 1024" version="1.1" xmlns="http://www.w3.org/2000/svg" p-id="1413" data-spm-anchor-id="a313x.7781069.0.i6" xmlns:xlink="http://www.w3.org/1999/xlink" width="258.3984375" height="200"><defs><style type="text/css"></style></defs><path d="M718.579625 501.730799c49.634606 0 99.275741 0.016322 148.908714-0.040806 4.575152-0.004897 9.210697-0.148533 13.710766-0.883039 22.31264-3.656204 37.657272-26.404651 32.922161-48.532848-4.469057-20.905654-20.69836-33.612596-43.7047-33.68115-45.044764-0.132211-90.092792-0.039174-135.135923-0.039174l-8.792845 0c-0.488038-0.987502-0.974444-1.975003-1.462482-2.962505 2.547917-1.824838 5.405959-3.339551 7.591521-5.520216 39.420085-39.2993 78.765087-78.67205 118.121515-118.033375 17.043788-17.04542 34.281812-33.893341 51.074236-51.178699 22.931256-23.603737 12.830992-61.79475-18.507902-69.748626-16.395791-4.160565-30.237136 1.003824-42.18509 13.008906-55.866476 56.126001-111.940245 112.038179-167.8867 168.082568-2.214942 2.214942-3.845543 5.009326-5.750361 7.534392-1.204589 0.355827-2.404281 0.718183-3.610502 1.07401-1.617544-2.766637-2.730728-6.031105-4.917921-8.223195-55.291929-55.476372-110.693218-110.849913-166.096139-166.216925-2.835191-2.835191-5.681807-5.722613-8.85487-8.143216-19.68964-15.013289-47.798343-9.60733-60.624438 11.546424-10.312455 17.002982-7.37933 37.048449 8.051811 52.513867 56.142323 56.251683 112.376051 112.416857 168.55918 168.627734 2.025602 2.025602 3.896143 4.194842 7.080631 7.638855l-11.683531 0c-44.755858 0.004897-89.518245-0.104463-134.275736 0.050599-23.734316 0.086508-41.639923 15.248331-43.786311 36.516341-2.685025 26.651118 15.809819 46.482762 43.913625 46.56927 50.782066 0.155062 101.56903 0.045703 152.351096 0.045703l10.318984 0 0 83.172119c-3.868395 0-6.966375 0-10.043136 0.004897-51.06934 0-102.143576 0.086508-153.212916-0.068554-11.087766-0.034277-20.957885 2.755211-29.381846 10.026814-12.969732 11.184068-17.693417 29.34104-11.931631 45.42181 5.85972 16.361514 20.998691 27.344817 38.909196 27.401946 52.2168 0.166488 104.438497 0.063657 156.655297 0.068554l9.395139 0 0 10.743365c0 50.782066 0.057128 101.570662-0.040806 152.352728-0.022851 13.663431 4.126288 25.513451 14.698268 34.37485 13.038286 10.919646 28.010769 13.250476 43.481083 6.478337 16.178704-7.080631 24.728346-20.166252 24.785474-37.978822 0.161591-51.642254 0.063657-103.291037 0.070186-154.934923l0-11.040431 10.116587 0c51.074236 0 102.143576 0.155062 153.212916-0.184442 6.966375-0.045703 14.432214-1.400457 20.775075-4.176887 17.456743-7.650281 26.66744-27.219135 22.598281-45.583401-4.304201-19.408895-20.016086-32.74588-39.821615-32.825859-51.929527-0.21219-103.865583-0.079979-155.79511-0.086508l-10.524645 0 0-83.170487L718.579625 501.730799z" p-id="1414"></path><path d="M1321.309804 153.385933 1321.293482 153.385933c-0.004897-3.279158-0.003264-6.559949-0.009793-9.839107-0.161591-74.891796-55.016082-129.871968-130.035192-129.896452C936.167852 13.573659 681.08884 13.568762 426.013093 13.620993l0 0.006529C321.87003 13.632419 169.980856 13.634051 132.720217 13.645477 58.401335 13.671593 3.357505 68.947199 3.150212 143.207321c-0.068554 25.157624-0.057128 50.311983-0.035909 75.467975l0.008161 0c0.006529 41.231865 0.013058 106.883584 0.019587 114.737894 0.02938 42.036556 20.097698 70.148524 59.256626 85.804913 13.839713 5.533274 26.453618 14.133515 39.624114 21.333299-0.293802 0.639836-0.590869 1.282936-0.883039 1.922772 4.025089 4.983211 8.459869 9.698735 12.009978 15.000231 39.123018 58.447038 14.957793 133.676706-50.780434 158.41811C23.084686 630.678923 3.182856 659.414404 3.150212 701.495031c-0.013058 15.333207-0.009793 30.666414-0.013058 45.999621L3.12736 747.494651c0.001632 2.07457 0.003264 8.805903 0.003264 18.30877 0.001632 4.779181-0.008161 9.55673-0.003264 14.335912l0.004897 0c0.003264 40.727505 0.008161 105.169738 0.034277 112.438076 0.264422 73.706794 55.375173 128.917112 129.233765 128.944859 33.222492 0.011426 150.725391 0.011426 246.276374 0.013058l0 0.006529c132.845899 0.027748 265.690166 0.057128 398.534432 0.047335 1.323742 0.119153 2.662174 0.187707 4.01856 0.187707 23.93508 0 43.339079-18.96656 43.339079-42.363003 0-22.887186-18.571559-41.524035-41.786824-42.32383l0-0.027748c-0.375414 0-0.75246 0-1.127874 0-0.142004-0.001632-0.282376-0.009793-0.424381-0.009793-0.142004 0-0.284009 0.009793-0.426013 0.009793-24.70223 0-49.406093 0.001632-74.108324 0.001632-67.99071 0-135.979788-0.001632-203.968866-0.003264l0-0.001632c-51.216241-0.001632-314.624543 0-365.842416-0.001632-33.406935-0.004897-49.260824-15.925708-49.273882-49.446899-0.001632-6.022944 0.001632-67.83728 0.006529-107.471188l0.008161 0c0.02938-25.2425 0.063657-50.488264-0.189339-75.725868-0.062025-6.031105 1.890127-8.538216 7.390756-10.660121 118.69443-45.836397 159.771232-191.694466 82.320093-292.19275-21.524271-27.922628-48.931113-48.203137-82.050775-60.376338-5.980506-2.196987-7.712306-5.159492-7.655178-11.361981 0.063657-6.941892 0.102831-70.701851 0.127314-111.146979l0.024484 0c0.053864-24.601032-0.039174-49.203696 0.009793-73.804728 0.057128-29.842136 16.949119-46.774932 46.691688-46.774932 36.834626-0.001632 187.958282 0 291.716138 0.001632 254.71992-0.008161 509.438209-0.009793 764.159761 0.009793 29.719718 0 46.601915 16.975234 46.650882 46.823899 0.040806 24.579813-0.04407 49.159626 0.019587 73.742703l0.042438 0c0.027748 47.889748 0.065289 105.357445 0.120785 111.20574 0.053864 5.99846-1.84116 8.5627-7.377698 10.679708-116.910398 44.733007-159.673298 183.84342-88.083512 286.569704 5.98377 8.583919 13.198245 16.296225 19.84307 24.418222 19.789206 19.359928 42.723727 33.467327 68.583211 42.836351 5.20193 1.891759 7.051251 4.418458 7.005549 10.046401-0.053864 6.73623-0.088141 13.474092-0.114256 20.211955l-0.037541 0c0 1.105022 0.001632 6.840693 0.001632 15.540501-0.026116 16.583498-0.008161 33.166996-0.001632 49.748862l0.003264 0c0.001632 44.806458 0 96.745778-0.003264 100.323635-0.037541 29.781743-16.952383 46.78799-46.66394 46.796151-18.734783 0.003264-37.469565-0.001632-56.202716 0.001632-0.022851 0-0.04407-0.001632-0.068554-0.001632s-0.045703 0.001632-0.068554 0.001632c-0.231777 0-0.461922 0-0.692067 0l0 0.016322c-23.58415 0.396633-42.58009 19.196705-42.58009 42.343416 0 23.396443 19.403999 42.363003 43.339079 42.363003 1.568577 0 3.115935-0.086508 4.642074-0.244835 17.758707-0.004897 35.517413-0.003264 53.27612-0.009793 74.22258-0.02938 129.258248-55.411082 129.460645-129.685894 0.009793-3.901039 0.011426-56.645051 0.013058-101.90527l0.004897 0c0.021219-17.371867 0.003264-34.743734-0.001632-52.115602 0-7.309144 0.001632-12.099751 0.001632-13.173761l-0.003264 0c-0.003264-7.669868 0.003264-15.338104 0-23.007971-0.026116-42.096949-20.409455-70.367243-59.390469-85.697186-13.302708-5.234575-26.907379-12.380495-37.265536-22.004148-57.94431-53.839241-37.934752-147.785737 36.614275-175.176257 40.059921-14.721119 60.018879-43.241145 60.048259-85.879996 0.003264-6.494659 0.006529-65.480334 0.011426-114.202521l0.008161 0c0.011426-17.353913 0.011426-34.707825-0.003264-52.061738C1321.308172 159.694517 1321.309804 154.9692 1321.309804 153.385933z" p-id="1415"></path></svg>