<?xml version="1.0" standalone="no"?><!DOCTYPE svg PUBLIC "-//W3C//DTD SVG 1.1//EN" "http://www.w3.org/Graphics/SVG/1.1/DTD/svg11.dtd"><svg t="1562813527665" class="icon" viewBox="0 0 1024 1024" version="1.1" xmlns="http://www.w3.org/2000/svg" p-id="7088" xmlns:xlink="http://www.w3.org/1999/xlink" width="200" height="200"><defs><style type="text/css"></style></defs><path d="M754.549622 1002.136216H269.450378C174.27373 1002.136216 96.864865 925.004108 96.864865 830.187243V415.688649c0-94.816865 77.408865-171.976649 172.585513-171.976649h485.099244c95.148973 0 172.585514 77.159784 172.585513 171.976649v414.498594c0 94.816865-77.436541 171.948973-172.585513 171.948973zM269.450378 326.351568a89.586162 89.586162 0 0 0-89.669189 89.337081v414.498594a89.558486 89.558486 0 0 0 89.669189 89.309406h485.099244a89.586162 89.586162 0 0 0 89.669189-89.309406V415.688649a89.586162 89.586162 0 0 0-89.669189-89.337081H269.450378z m187.225946-6.642163c-43.312432 0-92.326054-24.686703-131.127351-66.089513-27.315892-29.142486-46.495135-63.432649-53.967568-96.588108-9.132973-40.406486-0.083027-76.827676 24.76973-99.936865 16.57773-15.443027 38.579892-23.607351 63.626379-23.607351 43.312432 0 92.326054 24.714378 131.127351 66.089513 27.288216 29.142486 46.467459 63.432649 53.967567 96.588108 9.132973 40.406486 0.110703 76.827676-24.742054 99.964541-16.605405 15.443027-38.607568 23.607351-63.654054 23.607351z m-96.69881-203.58227c-4.096 0-6.420757 0.83027-7.029622 1.383784-0.885622 0.802595-3.680865 7.140324-0.442811 21.393297 4.234378 18.736432 16.494703 40.019027 33.653622 58.312649 25.821405 27.537297 54.022919 39.852973 70.517621 39.852973 4.096 0 6.448432-0.802595 7.057298-1.356108 0.857946-0.802595 3.653189-7.140324 0.44281-21.393298-4.262054-18.764108-16.522378-40.019027-33.681297-58.340324-25.821405-27.537297-54.022919-39.852973-70.517621-39.852973zM567.351351 319.737081h-0.027675c-25.046486 0-47.048649-8.192-63.654054-23.635027-47.159351-43.893622-34.594595-128.359784 29.225513-196.497297 38.801297-41.402811 87.814919-66.144865 131.155027-66.144865 25.018811 0 47.048649 8.192 63.626379 23.635027 47.187027 43.893622 34.62227 128.387459-29.225514 196.524973-38.773622 41.402811-87.787243 66.117189-131.099676 66.117189z m96.698811-203.609946c-16.522378 0-44.723892 12.315676-70.545297 39.852973-35.729297 38.164757-38.745946 74.613622-33.210811 79.733622 0.581189 0.553514 2.961297 1.383784 7.029622 1.383784 16.522378 0 44.723892-12.343351 70.517621-39.852973 35.756973-38.192432 38.745946-74.613622 33.210811-79.733622-0.581189-0.553514-2.933622-1.383784-7.001946-1.383784zM512 994.553081a41.375135 41.375135 0 0 1-41.458162-41.347459V298.426811c0-22.804757 18.542703-41.319784 41.458162-41.319784s41.485838 18.515027 41.485838 41.319784v654.806486c0 22.804757-18.570378 41.292108-41.485838 41.292108zM880.64 664.216216H147.345297a41.375135 41.375135 0 0 1-41.458162-41.319784c0-22.832432 18.542703-41.319784 41.458162-41.319783h733.350054c22.887784 0 41.458162 18.487351 41.458163 41.319783 0 22.832432-18.542703 41.319784-41.458163 41.319784z" p-id="7089"></path></svg>