<?xml version="1.0" standalone="no"?><!DOCTYPE svg PUBLIC "-//W3C//DTD SVG 1.1//EN" "http://www.w3.org/Graphics/SVG/1.1/DTD/svg11.dtd"><svg t="1562813834278" class="icon" viewBox="0 0 1024 1024" version="1.1" xmlns="http://www.w3.org/2000/svg" p-id="13114" xmlns:xlink="http://www.w3.org/1999/xlink" width="200" height="200"><defs><style type="text/css"></style></defs><path d="M725.333333 819.669333a128 128 0 0 0-21.504-70.997333l-141.994666-212.992a42.666667 42.666667 0 0 1 0-47.36l141.994666-212.992A128 128 0 0 0 725.333333 204.330667V128a42.666667 42.666667 0 0 1 85.333334 0v76.330667a213.333333 213.333333 0 0 1-35.84 118.314666L648.618667 512l126.208 189.354667A213.333333 213.333333 0 0 1 810.666667 819.626667V896a42.666667 42.666667 0 0 1-42.666667 42.666667H256a42.666667 42.666667 0 0 1-42.666667-42.666667v-76.330667a213.333333 213.333333 0 0 1 35.84-118.314666L375.381333 512 249.173333 322.645333A213.333333 213.333333 0 0 1 213.333333 204.373333V128a42.666667 42.666667 0 0 1 42.666667-42.666667h341.333333a42.666667 42.666667 0 0 1 0 85.333334H298.666667v33.664a128 128 0 0 0 21.504 70.997333l141.994666 212.992a42.666667 42.666667 0 0 1 0 47.36l-141.994666 212.992A128 128 0 0 0 298.666667 819.669333V853.333333h426.666666v-33.664zM426.666667 810.666667a42.666667 42.666667 0 0 1 0-85.333334h170.666666a42.666667 42.666667 0 0 1 0 85.333334h-170.666666z" p-id="13115"></path></svg>