<?xml version="1.0" standalone="no"?><!DOCTYPE svg PUBLIC "-//W3C//DTD SVG 1.1//EN" "http://www.w3.org/Graphics/SVG/1.1/DTD/svg11.dtd"><svg t="1562814201947" class="icon" viewBox="0 0 1024 1024" version="1.1" xmlns="http://www.w3.org/2000/svg" p-id="19052" xmlns:xlink="http://www.w3.org/1999/xlink" width="200" height="200"><defs><style type="text/css"></style></defs><path d="M665.200706 424.045809c11.92561-11.94403 28.417213-19.34151 46.603411-19.34151l0 0c18.185174 0 34.676777 7.397481 46.600341 19.34151l0 0c11.945053 11.962449 19.322068 28.473495 19.322068 46.659693 0 18.225083-7.377014 34.715663-19.322068 46.659693l0 0c-11.923564 11.964496-28.41619 19.360953-46.600341 19.360953l0 0c-18.186198 0-34.6778-7.397481-46.603411-19.360953l0 0c-11.943007-11.94403-19.340487-28.435633-19.340487-46.659693C645.859195 452.519304 653.257699 436.008258 665.200706 424.045809L665.200706 424.045809zM454.317765 783.106558c18.754133 1.694595 38.0762 2.850931 56.841589 2.850931l0.557702 0c109.136629 0 208.042243-35.293831 279.651165-92.76066 71.049173-56.889685 115.396193-135.413086 115.396193-222.491327l0 0 0 0 0 0 0 0c0-86.48063-44.347021-165.57299-115.396193-222.471884-71.609944-57.467853-170.514535-92.750427-280.208866-92.750427l0 0c-109.136629 0-208.034057 35.282574-279.650141 92.750427-71.617108 56.898895-115.388007 135.991254-115.388007 222.471884 0 40.418548 9.661034 79.679737 27.847232 116.091018 18.195408 36.988426 45.473681 71.125921 80.72044 100.716866l0 0c6.250354 5.683443 11.364839 12.522198 13.639648 20.478404 2.840698 7.976672 3.41068 16.511046 1.13587 25.044396l-24.447808 104.128569 155.748227-62.032822c2.272763-1.136893 5.115508-2.27481 7.957229-2.832512 2.840698-0.578168 5.682419-0.578168 8.525164-0.578168l0 0c2.272763 0 3.977591 0 5.682419 0 1.704828 0.578168 3.409656 0.578168 5.114484 1.13587l0 0C416.798243 777.403672 435.563632 780.832771 454.317765 783.106558L454.317765 783.106558zM195.694519 210.676234c80.710206-66.001203 192.687534-106.969267 315.463812-106.969267l0 0c123.332956 0 234.742349 40.968064 315.461765 106.969267 81.280188 66.579371 131.291209 158.753677 131.291209 260.028245 0 101.873202-50.011021 193.47855-131.291209 260.057921C745.901703 796.764626 634.49231 837.722456 511.159354 837.722456l0 0c-21.038152 0-42.066071-1.13587-62.526055-3.41068-21.026896-2.850931-40.927131-6.260587-60.819181-10.80816l-235.31233 93.878111-10.239202 4.565992 2.840698-10.82658 43.769876-186.619328c-38.655392-33.000602-69.913303-72.263837-91.508133-115.513874-21.038152-42.670845-32.971949-89.349981-32.971949-138.28346l0 0C64.394101 369.429911 114.416378 277.256628 195.694519 210.676234L195.694519 210.676234zM464.547757 424.045809c11.93482-11.94403 28.424376-19.34151 46.611597-19.34151l0 0c18.185174 0 34.676777 7.397481 46.601364 19.34151 11.945053 11.962449 19.322068 28.473495 19.322068 46.659693 0 18.225083-7.377014 34.715663-19.322068 46.659693l0 0c-11.924587 11.964496-28.417213 19.360953-46.601364 19.360953l0 0c-18.186198 0-34.676777-7.397481-46.611597-19.360953l0 0c-11.93482-11.94403-19.324114-28.435633-19.324114-46.659693C445.223642 452.519304 452.612936 436.008258 464.547757 424.045809L464.547757 424.045809zM264.469905 424.045809c11.93482-11.94403 27.857465-19.34151 46.043662-19.34151l0 0c18.185174 0 34.666544 7.397481 46.601364 19.34151 11.945053 11.962449 19.332301 28.473495 19.332301 46.659693 0 18.225083-7.387247 34.715663-19.332301 46.659693-11.93482 11.964496-28.41619 19.360953-46.601364 19.360953l0 0c-17.618263 0-34.108842-7.397481-46.043662-19.360953l0 0 0 0c-11.93482-11.94403-19.322068-28.435633-19.322068-46.659693l0 0C245.147838 452.519304 252.536109 436.008258 264.469905 424.045809L264.469905 424.045809z" p-id="19053"></path></svg>