<?xml version="1.0" standalone="no"?><!DOCTYPE svg PUBLIC "-//W3C//DTD SVG 1.1//EN" "http://www.w3.org/Graphics/SVG/1.1/DTD/svg11.dtd"><svg t="1562834484490" class="icon" viewBox="0 0 1024 1024" version="1.1" xmlns="http://www.w3.org/2000/svg" p-id="2990" xmlns:xlink="http://www.w3.org/1999/xlink" width="200" height="200"><defs><style type="text/css"></style></defs><path d="M512 960C265.6 960 64 758.4 64 512S265.6 64 512 64s448 201.6 448 448-201.6 448-448 448z m0-832C300.8 128 128 300.8 128 512s172.8 384 384 384 384-172.8 384-384S723.2 128 512 128z" p-id="2991"></path><path d="M512 800c-17.6 0-32-14.4-32-32V480c0-17.6 14.4-32 32-32s32 14.4 32 32v288c0 17.6-14.4 32-32 32z" p-id="2992"></path><path d="M672 672H352c-17.6 0-32-14.4-32-32s14.4-32 32-32h320c17.6 0 32 14.4 32 32s-14.4 32-32 32zM672 512H352c-17.6 0-32-14.4-32-32s14.4-32 32-32h320c17.6 0 32 14.4 32 32s-14.4 32-32 32z" p-id="2993"></path><path d="M512 512c-8 0-16-3.2-22.4-9.6l-158.4-158.4c-12.8-12.8-12.8-32 0-44.8 12.8-12.8 32-12.8 44.8 0l158.4 158.4c12.8 12.8 12.8 32 0 44.8-6.4 6.4-14.4 9.6-22.4 9.6z" p-id="2994"></path><path d="M512 512c-8 0-16-3.2-22.4-9.6-12.8-12.8-12.8-32 0-44.8l158.4-158.4c12.8-12.8 32-12.8 44.8 0 12.8 12.8 12.8 32 0 44.8l-158.4 158.4c-6.4 6.4-14.4 9.6-22.4 9.6z" p-id="2995"></path></svg>