<?xml version="1.0" standalone="no"?><!DOCTYPE svg PUBLIC "-//W3C//DTD SVG 1.1//EN" "http://www.w3.org/Graphics/SVG/1.1/DTD/svg11.dtd"><svg t="1562814008872" class="icon" viewBox="0 0 1338 1024" version="1.1" xmlns="http://www.w3.org/2000/svg" p-id="14643" xmlns:xlink="http://www.w3.org/1999/xlink" width="261.328125" height="200"><defs><style type="text/css"></style></defs><path d="M983.25275 1023.424324 198.084683 1023.424324c-109.223895 0-198.084683-88.860789-198.084683-198.084683l0-475.40324c0-109.223895 88.860789-198.084683 198.084683-198.084683l785.168067 0c109.223895 0 198.084683 88.860789 198.084683 198.084683l0 475.40324C1181.337434 934.563535 1092.476644 1023.424324 983.25275 1023.424324zM198.084683 231.085591c-65.526413 0-118.850809 53.324397-118.850809 118.850809l0 475.40324c0 65.526413 53.324397 118.850809 118.850809 118.850809l785.168067 0c65.526413 0 118.850809-53.324397 118.850809-118.850809l0-475.40324c0-65.526413-53.324397-118.850809-118.850809-118.850809L198.084683 231.085591zM1138.511524 871.572605l0-79.233873c65.526413 0 118.850809-53.324397 118.850809-118.850809L1257.362335 198.084683c0-65.526413-53.324397-118.850809-118.850809-118.850809L353.343457 79.233873c-65.526413 0-118.850809 53.324397-118.850809 118.850809l-79.233873 0c0-109.223895 88.860789-198.084683 198.084683-198.084683l785.168067 0c109.223895 0 198.084683 88.860789 198.084683 198.084683l0 475.40324C1336.596208 782.711817 1247.735419 871.572605 1138.511524 871.572605zM1107.214145 879.614844 827.716657 679.9851 583.63671 836.907786 303.109182 581.893565 58.514216 795.428853 6.417944 735.72613 304.218456 475.759792 591.956267 737.350424 830.093673 584.270582 1153.249025 815.158088ZM876.247404 551.230056c-69.329639 0-125.70454-56.374901-125.70454-125.70454s56.374901-125.70454 125.70454-125.70454 125.70454 56.374901 125.70454 125.70454S945.577043 551.230056 876.247404 551.230056zM876.247404 379.015233c-25.632158 0-46.470666 20.838508-46.470666 46.470666s20.838508 46.470666 46.470666 46.470666 46.470666-20.838508 46.470666-46.470666S901.879563 379.015233 876.247404 379.015233z" p-id="14644"></path></svg>