<?xml version="1.0" standalone="no"?><!DOCTYPE svg PUBLIC "-//W3C//DTD SVG 1.1//EN" "http://www.w3.org/Graphics/SVG/1.1/DTD/svg11.dtd"><svg t="1562834210071" class="icon" viewBox="0 0 1025 1024" version="1.1" xmlns="http://www.w3.org/2000/svg" p-id="2065" xmlns:xlink="http://www.w3.org/1999/xlink" width="200.1953125" height="200"><defs><style type="text/css"></style></defs><path d="M929.479 350.193c-20.918-49.482-50.888-93.955-89.033-132.099s-82.617-68.115-132.099-89.033c-51.24-21.709-105.644-32.695-161.807-32.695-56.075 0-110.567 10.987-161.807 32.695-49.482 20.918-93.955 50.888-132.099 89.033-38.144 38.145-68.115 82.617-89.033 132.099-8.614 20.303-15.557 41.309-20.83 62.666l-20.742-46.582c-5.01-11.338-16.26-18.633-28.653-18.633-4.395 0-8.701 0.879-12.744 2.724-7.646 3.428-13.535 9.58-16.523 17.403-2.988 7.822-2.813 16.348 0.615 23.994l64.248 144.492c0.352 0.791 0.703 1.494 1.143 2.286 0 0.088 0.088 0.176 0.175 0.263 0.352 0.703 0.703 1.318 1.143 1.846 0 0 0.088 0.088 0.088 0.176 0.352 0.44 0.615 0.967 0.967 1.406 0.176 0.176 0.352 0.44 0.528 0.615 0.263 0.352 0.44 0.615 0.703 0.879 0.352 0.44 0.703 0.879 1.143 1.231l0.088 0.088c0.175 0.176 0.352 0.44 0.528 0.615l0.615 0.615 0.088 0.088c0.263 0.263 0.528 0.528 0.791 0.703 0.263 0.176 0.44 0.352 0.703 0.528 0.352 0.352 0.791 0.615 1.143 0.967 0.088 0.088 0.263 0.176 0.352 0.263 0.528 0.44 1.143 0.791 1.758 1.231l0.088 0.088c0.528 0.352 1.143 0.703 1.758 1.055l0.176 0.088c1.318 0.703 2.637 1.318 3.955 1.758h0.088c0.615 0.176 1.143 0.44 1.846 0.615l0.352 0.176c0.615 0.176 1.143 0.352 1.67 0.44l0.263 0.088h0.088c0.615 0.088 1.23 0.263 1.846 0.352 0.176 0 0.44 0.088 0.703 0.088h0.088c0.352 0.088 0.791 0.088 1.143 0.088h0.088c0.263 0 0.528 0.088 0.791 0.088 0.352 0 0.791 0 1.143 0.088h0.703c0.791 0 1.67 0 2.637-0.088h0.176c0.879-0.088 1.67-0.176 2.549-0.352 0.176 0 0.263-0.088 0.352-0.088 0.879-0.176 1.67-0.352 2.373-0.528 0.088 0 0.263-0.088 0.352-0.088h0.088c0.615-0.176 1.23-0.352 1.846-0.615h0.088c0.175-0.088 0.352-0.088 0.528-0.176 0.528-0.176 1.143-0.44 1.67-0.703h0.088c0.088 0 0.176-0.088 0.263-0.088 0.263-0.088 0.528-0.263 0.703-0.352 0.703-0.352 1.406-0.703 2.021-1.055 0.088-0.088 0.176-0.088 0.263-0.176l0.088-0.088c1.67-1.055 3.252-2.198 4.747-3.516l119.18-104.239c13.008-11.338 14.326-31.201 2.901-44.209-5.977-6.768-14.502-10.722-23.555-10.722-7.559 0-14.942 2.724-20.654 7.734l-56.513 49.482c31.641-164.356 177.714-286.26 346.641-286.26 194.589 0 352.969 158.379 352.969 352.969S741.139 864.88 546.549 864.88c-84.2 0-165.762-30.146-229.658-84.903-5.713-4.834-12.92-7.559-20.391-7.559-9.141 0-17.842 3.955-23.818 10.898-11.25 13.096-9.756 32.959 3.428 44.121 75.234 64.512 171.211 99.932 270.44 99.932 56.075 0 110.567-10.987 161.807-32.695 49.482-20.918 93.955-50.888 132.099-89.033 38.145-38.144 68.115-82.617 89.033-132.099 21.709-51.24 32.695-105.645 32.695-161.807 0-55.81-10.987-110.215-32.695-161.543m-256.299 6.769c-5.888-5.888-13.799-9.141-22.148-9.141s-16.26 3.252-22.148 9.141l-82.442 82.441-82.442-82.441c-5.888-5.888-13.799-9.141-22.148-9.141s-16.26 3.252-22.148 9.141c-12.217 12.217-12.217 32.08 0 44.297l51.065 51.065h-49.834c-3.339 0-6.065 2.724-6.065 6.065v50.537c0 3.34 2.724 6.065 6.065 6.065h94.131v41.924h-94.131c-3.339 0-6.065 2.724-6.065 6.065v50.537c0 3.34 2.724 6.065 6.065 6.065h94.131v94.131c0 17.315 14.063 31.289 31.289 31.289s31.289-14.063 31.289-31.289v-94.131h94.219c3.34 0 6.065-2.724 6.065-6.065v-50.537c0-3.34-2.724-6.065-6.065-6.065h-94.219V514.99h94.219c3.34 0 6.065-2.724 6.065-6.065v-50.537c0-3.34-2.724-6.065-6.065-6.065h-49.834l51.153-51.153c12.217-12.128 12.217-31.992 0-44.209z" p-id="2066"></path></svg>