<?xml version="1.0" standalone="no"?><!DOCTYPE svg PUBLIC "-//W3C//DTD SVG 1.1//EN" "http://www.w3.org/Graphics/SVG/1.1/DTD/svg11.dtd"><svg t="1563177728233" class="icon" viewBox="0 0 1024 1024" version="1.1" xmlns="http://www.w3.org/2000/svg" p-id="2375" xmlns:xlink="http://www.w3.org/1999/xlink" width="200" height="200"><defs><style type="text/css"></style></defs><path d="M640 42.666667H384v85.333333h256V42.666667z m-170.666667 554.666666h85.333334V341.333333h-85.333334v256z m341.333334-281.6L874.666667 256c-21.333333-21.333333-42.666667-42.666667-64-59.733333L750.933333 256c-64-51.2-149.333333-85.333333-238.933333-85.333333-213.333333 0-384 170.666667-384 384s170.666667 384 384 384 384-170.666667 384-384c0-89.6-29.866667-174.933333-85.333333-238.933334zM512 853.333333c-166.4 0-298.666667-132.266667-298.666667-298.666666s132.266667-298.666667 298.666667-298.666667 298.666667 132.266667 298.666667 298.666667-132.266667 298.666667-298.666667 298.666666z" p-id="2376"></path></svg>